<svg xmlns="http://www.w3.org/2000/svg">
  <defs>
    <symbol id="discover" xmlns="http://www.w3.org/2000/svg" viewBox="0 0 32 32">
      <path d="M22.906491,15.414252 C22.713491,15.596252 22.465491,15.686252 22.219491,15.686252 C21.953491,15.686252 21.688491,15.581252 21.490491,15.373252 C20.046491,13.843252 18.090491,13.000252 15.985491,13.000252 C13.881491,13.000252 11.926491,13.842252 10.481491,15.371252 C10.100491,15.772252 9.46849098,15.790252 9.06549098,15.412252 C8.66449098,15.032252 8.64549098,14.399252 9.02449098,13.998252 C10.826491,12.093252 13.363491,11.000252 15.985491,11.000252 C18.609491,11.000252 21.146491,12.094252 22.947491,14.000252 C23.326491,14.402252 23.307491,15.035252 22.906491,15.414252 M20.518491,18.659252 C20.332491,18.812252 20.106491,18.888252 19.882491,18.888252 C19.593491,18.888252 19.307491,18.764252 19.108491,18.524252 C18.870491,18.235252 18.593491,17.977252 18.283491,17.761252 C16.910491,16.798252 14.988491,16.763252 13.583491,17.678252 C13.306491,17.857252 13.049491,18.071252 12.817491,18.315252 C12.436491,18.718252 11.803491,18.734252 11.402491,18.353252 C11.001491,17.974252 10.984491,17.341252 11.364491,16.940252 C11.704491,16.582252 12.083491,16.266252 12.491491,16.001252 C14.566491,14.650252 17.401491,14.697252 19.436491,16.125252 C19.891491,16.446252 20.301491,16.824252 20.653491,17.251252 C21.006491,17.677252 20.945491,18.308252 20.518491,18.659252 M18.281491,21.573252 C18.094491,21.727252 17.868491,21.803252 17.644491,21.803252 C17.355491,21.803252 17.069491,21.679252 16.872491,21.440252 C16.803491,21.357252 16.721491,21.282252 16.630491,21.217252 C16.240491,20.945252 15.682491,20.933252 15.278491,21.194252 C15.197491,21.248252 15.122491,21.310252 15.056491,21.380252 C14.674491,21.782252 14.041491,21.798252 13.640491,21.419252 C13.238491,21.039252 13.220491,20.406252 13.601491,20.005252 C13.775491,19.822252 13.970491,19.659252 14.183491,19.520252 C15.259491,18.817252 16.732491,18.843252 17.785491,19.584252 C18.023491,19.752252 18.233491,19.947252 18.415491,20.165252 C18.767491,20.591252 18.707491,21.222252 18.281491,21.573252 M15.986491,25.000252 C15.433491,25.000252 14.985491,24.553252 14.985491,24.000252 C14.985491,23.447252 15.433491,23.000252 15.986491,23.000252 C16.539491,23.000252 16.987491,23.447252 16.987491,24.000252 C16.987491,24.553252 16.539491,25.000252 15.986491,25.000252 M27.663491,14.191252 L16.708491,4.27825203 C16.308491,3.90825203 15.692491,3.90725203 15.292491,4.27525203 L4.34049098,14.188252 C3.63849098,14.832252 4.09449098,16.000252 5.04749098,16.000252 L7.01349098,16.000252 L7.00049098,27.000252 C7.00049098,27.553252 7.44849098,28.000252 8.00149098,28.000252 L23.985491,28.000252 C24.538491,28.000252 24.986491,27.553252 24.986491,27.000252 L25.000491,16.000252 L26.953491,16.000252 C27.903491,16.000252 28.360491,14.836252 27.663491,14.191252"></path>
    </symbol>
    <symbol id="bridge" xmlns="http://www.w3.org/2000/svg" viewBox="0 0 32 32">
      <path d="M22,8 C21.447,8 21,7.553 21,7 C21,6.447 21.447,6 22,6 C22.553,6 23,6.447 23,7 C23,7.553 22.553,8 22,8 Z M16,12 C18.209,12 20,13.791 20,16 C20,18.209 18.209,20 16,20 C13.791,20 12,18.209 12,16 C12,13.791 13.791,12 16,12 Z M16,22 C12.691,22 10,19.309 10,16 C10,12.691 12.691,10 16,10 C19.309,10 22,12.691 22,16 C22,19.309 19.309,22 16,22 M9,7 C9,6.447 9.447,6 10,6 C10.553,6 11,6.447 11,7 C11,7.553 10.553,8 10,8 C9.447,8 9,7.553 9,7 M16,6 C16.553,6 17,6.447 17,7 C17,7.553 16.553,8 16,8 C15.447,8 15,7.553 15,7 C15,6.447 15.447,6 16,6 M24,4 L8,4 C5.8,4 4,5.8 4,8 L4,24 C4,26.2 5.8,28 8,28 L24,28 C26.2,28 28,26.2 28,24 L28,8 C28,5.8 26.2,4 24,4"></path>
    </symbol>
    <symbol id="launch" xmlns="http://www.w3.org/2000/svg" viewBox="0 0 32 32">
      <path d="M27.9824287,5.01955322 C27.7154287,13.0875532 24.3274287,17.5405532 20.8414287,19.9955532 C20.8824287,20.1225532 21.9954287,23.7575532 17.7294287,27.6875532 C17.1724287,28.2005532 16.2644287,27.9005532 16.0924287,27.1645532 L15.0324287,22.6235532 C13.8044287,22.9265532 13.0004287,22.9825532 13.0004287,22.9825532 L11.0004287,20.9825532 L9.00042869,18.9825532 C9.00042869,18.9825532 9.05642869,18.1825532 9.35742869,16.9595532 L4.77942869,15.8905532 C4.04342869,15.7185532 3.74342869,14.8105532 4.25542869,14.2545532 C8.25742869,9.91055322 11.9604287,11.1445532 11.9604287,11.1445532 C14.4004287,7.62355322 18.8154287,4.26955322 26.9634287,4.00055322 C27.5284287,3.98155322 28.0024287,4.45455322 27.9824287,5.01955322 Z M18.0004287,10.9825532 C18.0004287,12.6395532 19.3434287,13.9825532 21.0004287,13.9825532 C22.6564287,13.9825532 24.0004287,12.6395532 24.0004287,10.9825532 C24.0004287,9.32655322 22.6564287,7.98255322 21.0004287,7.98255322 C19.3434287,7.98255322 18.0004287,9.32655322 18.0004287,10.9825532 Z M9.58832869,22.3946532 L9.59532869,22.4006532 C11.0613287,23.8676532 10.6463287,26.4206532 8.72632869,27.2076532 C7.82832869,27.5756532 6.65232869,27.8576532 5.11432869,27.9506532 C4.50632869,27.9876532 3.99632869,27.4766532 4.03232869,26.8686532 C4.12532869,25.3306532 4.40732869,24.1546532 4.77632869,23.2566532 C5.56232869,21.3376532 8.11532869,20.9216532 9.58232869,22.3876532 L9.58832869,22.3946532 Z"></path>
    </symbol>
    <symbol id="play" xmlns="http://www.w3.org/2000/svg" viewBox="0 0 448 512">
      <path d="M424.4 214.7L72.4 6.6C43.8-10.3 0 6.1 0 47.9V464c0 37.5 40.7 60.1 72.4 41.3l352-208c31.4-18.5 31.5-64.1 0-82.6zM48 453.5v-395c0-4.6 5.1-7.5 9.1-5.2l334.2 197.5c3.9 2.3 3.9 8 0 10.3L57.1 458.7c-4 2.3-9.1-.6-9.1-5.2z"/>
    </symbol>
  </defs>
</svg>
